<svg aria-hidden="true" style="position: absolute; width: 0; height: 0; overflow: hidden;" version="1.1" xmlns="http://www.w3.org/2000/svg" xmlns:xlink="http://www.w3.org/1999/xlink">
<defs>
<symbol id="icon-facebook" viewBox="0 0 32 32">
<path d="M19 6h5v-6h-5c-3.86 0-7 3.14-7 7v3h-4v6h4v16h6v-16h5l1-6h-6v-3c0-0.542 0.458-1 1-1z"></path>
</symbol>
<symbol id="icon-instagram" viewBox="0 0 32 32">
<path d="M16 2.881c4.275 0 4.781 0.019 6.462 0.094 1.563 0.069 2.406 0.331 2.969 0.55 0.744 0.288 1.281 0.638 1.837 1.194 0.563 0.563 0.906 1.094 1.2 1.838 0.219 0.563 0.481 1.412 0.55 2.969 0.075 1.688 0.094 2.194 0.094 6.463s-0.019 4.781-0.094 6.463c-0.069 1.563-0.331 2.406-0.55 2.969-0.288 0.744-0.637 1.281-1.194 1.837-0.563 0.563-1.094 0.906-1.837 1.2-0.563 0.219-1.413 0.481-2.969 0.55-1.688 0.075-2.194 0.094-6.463 0.094s-4.781-0.019-6.463-0.094c-1.563-0.069-2.406-0.331-2.969-0.55-0.744-0.288-1.281-0.637-1.838-1.194-0.563-0.563-0.906-1.094-1.2-1.837-0.219-0.563-0.481-1.413-0.55-2.969-0.075-1.688-0.094-2.194-0.094-6.463s0.019-4.781 0.094-6.463c0.069-1.563 0.331-2.406 0.55-2.969 0.288-0.744 0.638-1.281 1.194-1.838 0.563-0.563 1.094-0.906 1.838-1.2 0.563-0.219 1.412-0.481 2.969-0.55 1.681-0.075 2.188-0.094 6.463-0.094zM16 0c-4.344 0-4.887 0.019-6.594 0.094-1.7 0.075-2.869 0.35-3.881 0.744-1.056 0.412-1.95 0.956-2.837 1.85-0.894 0.888-1.438 1.781-1.85 2.831-0.394 1.019-0.669 2.181-0.744 3.881-0.075 1.713-0.094 2.256-0.094 6.6s0.019 4.887 0.094 6.594c0.075 1.7 0.35 2.869 0.744 3.881 0.413 1.056 0.956 1.95 1.85 2.837 0.887 0.887 1.781 1.438 2.831 1.844 1.019 0.394 2.181 0.669 3.881 0.744 1.706 0.075 2.25 0.094 6.594 0.094s4.888-0.019 6.594-0.094c1.7-0.075 2.869-0.35 3.881-0.744 1.050-0.406 1.944-0.956 2.831-1.844s1.438-1.781 1.844-2.831c0.394-1.019 0.669-2.181 0.744-3.881 0.075-1.706 0.094-2.25 0.094-6.594s-0.019-4.887-0.094-6.594c-0.075-1.7-0.35-2.869-0.744-3.881-0.394-1.063-0.938-1.956-1.831-2.844-0.887-0.887-1.781-1.438-2.831-1.844-1.019-0.394-2.181-0.669-3.881-0.744-1.712-0.081-2.256-0.1-6.6-0.1v0z"></path>
<path d="M16 7.781c-4.537 0-8.219 3.681-8.219 8.219s3.681 8.219 8.219 8.219 8.219-3.681 8.219-8.219c0-4.537-3.681-8.219-8.219-8.219zM16 21.331c-2.944 0-5.331-2.387-5.331-5.331s2.387-5.331 5.331-5.331c2.944 0 5.331 2.387 5.331 5.331s-2.387 5.331-5.331 5.331z"></path>
<path d="M26.462 7.456c0 1.060-0.859 1.919-1.919 1.919s-1.919-0.859-1.919-1.919c0-1.060 0.859-1.919 1.919-1.919s1.919 0.859 1.919 1.919z"></path>
</symbol>
<symbol id="icon-twitter" viewBox="0 0 32 32">
<path d="M32 7.075c-1.175 0.525-2.444 0.875-3.769 1.031 1.356-0.813 2.394-2.1 2.887-3.631-1.269 0.75-2.675 1.3-4.169 1.594-1.2-1.275-2.906-2.069-4.794-2.069-3.625 0-6.563 2.938-6.563 6.563 0 0.512 0.056 1.012 0.169 1.494-5.456-0.275-10.294-2.888-13.531-6.862-0.563 0.969-0.887 2.1-0.887 3.3 0 2.275 1.156 4.287 2.919 5.463-1.075-0.031-2.087-0.331-2.975-0.819 0 0.025 0 0.056 0 0.081 0 3.181 2.263 5.838 5.269 6.437-0.55 0.15-1.131 0.231-1.731 0.231-0.425 0-0.831-0.044-1.237-0.119 0.838 2.606 3.263 4.506 6.131 4.563-2.25 1.762-5.075 2.813-8.156 2.813-0.531 0-1.050-0.031-1.569-0.094 2.913 1.869 6.362 2.95 10.069 2.95 12.075 0 18.681-10.006 18.681-18.681 0-0.287-0.006-0.569-0.019-0.85 1.281-0.919 2.394-2.075 3.275-3.394z"></path>
</symbol>
<symbol id="icon-linkedin" viewBox="0 0 32 32">
<path d="M12 12h5.535v2.837h0.079c0.77-1.381 2.655-2.837 5.464-2.837 5.842 0 6.922 3.637 6.922 8.367v9.633h-5.769v-8.54c0-2.037-0.042-4.657-3.001-4.657-3.005 0-3.463 2.218-3.463 4.509v8.688h-5.767v-18z"></path>
<path d="M2 12h6v18h-6v-18z"></path>
<path d="M8 7c0 1.657-1.343 3-3 3s-3-1.343-3-3c0-1.657 1.343-3 3-3s3 1.343 3 3z"></path>
</symbol>
<symbol id="icon-diligence" viewBox="0 0 41 32">
<path d="M2.047 31.732h32.751c1.13 0 2.047-0.916 2.047-2.047v-2.729c0-1.13-0.917-2.047-2.047-2.047h-0.682v-17.015l3.876-3.671c0.9 0.443 1.988 0.174 2.577-0.638s0.506-1.931-0.195-2.648-1.818-0.824-2.643-0.253c-0.825 0.571-1.118 1.653-0.694 2.563l-2.92 2.768v-1.574c0-1.13-0.916-2.047-2.047-2.047h-27.292c-1.13 0-2.047 0.917-2.047 2.047v20.469h-0.682c-1.13 0-2.047 0.916-2.047 2.047v2.729c0 1.13 0.917 2.047 2.047 2.047zM38.892 1.711c0.377 0 0.682 0.305 0.682 0.682s-0.306 0.682-0.682 0.682c-0.377 0-0.682-0.305-0.682-0.682s0.305-0.682 0.682-0.682zM4.094 4.44c0-0.377 0.306-0.682 0.682-0.682h27.292c0.377 0 0.682 0.306 0.682 0.682v2.865l-1.365 1.297v-2.798c0-0.377-0.306-0.682-0.682-0.682h-24.563c-0.377 0-0.682 0.306-0.682 0.682v17.058c0 0.377 0.306 0.682 0.682 0.682h24.563c0.377 0 0.682-0.305 0.682-0.682v-12.383l1.365-1.293v15.723h-28.657v-20.469zM10.235 13.31c-0.923-0.003-1.734 0.612-1.979 1.502s0.135 1.834 0.928 2.305c0.794 0.471 1.805 0.353 2.468-0.289l2.372 1.19c0.276 0.138 0.61 0.073 0.815-0.157l5.042-5.672 4.956 3.714c0.266 0.199 0.637 0.178 0.878-0.050l4.307-4.080v10.408h-23.199v-15.693h23.199v3.405l-4.828 4.572-4.998-3.747c-0.284-0.213-0.683-0.173-0.919 0.092l-5.111 5.751-1.911-0.956c0.014-0.082 0.023-0.165 0.026-0.248 0-1.13-0.917-2.047-2.047-2.047zM10.917 15.357c0 0.377-0.305 0.682-0.682 0.682s-0.682-0.306-0.682-0.682c0-0.377 0.306-0.682 0.682-0.682s0.682 0.306 0.682 0.682zM15.011 26.274h6.823v0.682c0 0.377-0.306 0.682-0.682 0.682h-5.459c-0.377 0-0.682-0.306-0.682-0.682v-0.682zM1.365 26.956c0-0.377 0.306-0.682 0.682-0.682h11.599v0.682c0 1.13 0.916 2.047 2.047 2.047h5.459c1.13 0 2.047-0.916 2.047-2.047v-0.682h11.599c0.377 0 0.682 0.305 0.682 0.682v2.729c0 0.377-0.305 0.682-0.682 0.682h-32.751c-0.377 0-0.682-0.305-0.682-0.682v-2.729z"></path>
</symbol>
<symbol id="icon-punctuality" viewBox="0 0 31 32">
<path d="M30.797 15.301c-0.002-8.452-6.855-15.303-15.308-15.301s-15.303 6.855-15.301 15.308c0.001 6.658 4.307 12.551 10.649 14.576 0.061 0.019 0.124 0.029 0.187 0.029 0.121-0 0.239-0.032 0.342-0.094 0.135-0.080 0.236-0.207 0.283-0.356l3.865-12.25c1.057-0.005 1.909-0.866 1.903-1.923s-0.866-1.909-1.923-1.903c-0.284 0.001-0.565 0.067-0.82 0.191l-5.106-5.107c-0.253-0.245-0.657-0.238-0.902 0.016-0.239 0.247-0.239 0.639 0 0.886l5.103 5.109c-0.392 0.799-0.168 1.764 0.536 2.309l-3.683 11.673c-7.278-2.681-11.004-10.754-8.323-18.032s10.754-11.004 18.032-8.323c7.278 2.681 11.004 10.754 8.323 18.032-1.31 3.556-4.001 6.431-7.462 7.973l-0.398-1.874c-0.073-0.345-0.411-0.565-0.756-0.492-0.109 0.023-0.209 0.074-0.293 0.148l-3.837 3.426c-0.263 0.234-0.287 0.637-0.052 0.9 0.076 0.085 0.174 0.149 0.283 0.184l4.899 1.564c0.335 0.108 0.694-0.077 0.802-0.412 0.034-0.106 0.040-0.219 0.017-0.328l-0.391-1.839c5.664-2.388 9.342-7.942 9.329-14.089zM15.492 14.664c0.352 0 0.638 0.286 0.638 0.638s-0.286 0.638-0.638 0.638c-0.352 0-0.638-0.285-0.638-0.638s0.285-0.638 0.638-0.638zM17.593 29.528l2.184-1.948 0.603 2.84-2.787-0.892z"></path>
</symbol>
<symbol id="icon-strategy" viewBox="0 0 30 32">
<path d="M29.773 22.098l-8.443-8.505 0.937-4.615c0.242 0.094 0.499 0.144 0.758 0.146h0.006c1.192 0.014 2.17-0.941 2.184-2.133s-0.941-2.17-2.133-2.184c-1.192-0.014-2.17 0.941-2.184 2.133-0.003 0.255 0.039 0.509 0.125 0.749l-4.96 0.605-8.091-8.133c-0.099-0.101-0.235-0.159-0.377-0.16-0.14 0.001-0.274 0.056-0.373 0.155l-1.513 1.504c-0.208 0.208-0.208 0.546 0 0.754l0.814 0.826c-3.153 5.798-2.129 12.978 2.519 17.663 0.043 0.041 0.092 0.074 0.146 0.098-0.034 0.18-0.051 0.364-0.052 0.547v6.187h-6.4c-1.472 0.002-2.665 1.195-2.667 2.667v1.067c0 0.295 0.239 0.533 0.533 0.533h24.533c0.295 0 0.533-0.239 0.533-0.533v-1.067c-0.002-1.472-1.195-2.665-2.667-2.667h-6.4v-2.742c1.003 0.21 2.024 0.317 3.049 0.32 2.458-0.003 4.877-0.615 7.040-1.783l0.818 0.823c0.099 0.101 0.235 0.159 0.377 0.16 0.14-0.001 0.274-0.056 0.373-0.155l1.513-1.504c0.208-0.208 0.208-0.546 0-0.754zM22.28 6.233c0.418-0.415 1.093-0.414 1.509 0.004s0.414 1.093-0.004 1.508c-0.2 0.199-0.47 0.31-0.752 0.31h-0.003c-0.589-0.003-1.064-0.483-1.061-1.072 0.002-0.282 0.115-0.552 0.314-0.751h-0.002zM21.024 9.738l-0.598 2.946-1.175-1.182 1.774-1.763zM20.419 8.836l-1.92 1.909-1.485-1.493 3.405-0.415zM23.004 28.8c0.884 0 1.6 0.716 1.6 1.6v0.533h-23.467v-0.533c0-0.884 0.716-1.6 1.6-1.6h20.267zM15.537 26.667v1.067h-5.333v-1.067h5.333zM10.204 25.6v-4.053c0-1.294 1.196-2.347 2.667-2.347s2.667 1.053 2.667 2.347v4.053h-5.333zM16.604 23.904v-2.357c0-1.882-1.675-3.413-3.733-3.413-1.331-0.020-2.576 0.657-3.281 1.786-4.058-4.274-4.971-10.645-2.279-15.887l18.602 18.708c-2.872 1.461-6.165 1.873-9.309 1.163zM27.893 23.22l-21.057-21.181 0.755-0.752 7.935 7.98c0.004 0 0.006 0.007 0.010 0.010l13.115 13.191-0.757 0.752z"></path>
</symbol>
<symbol id="icon-techno" viewBox="0 0 29 32">
<path d="M27.75 13.653c-0.323-0.435-0.796-0.716-1.334-0.791-0.54-0.077-1.073 0.065-1.504 0.395l-1.406 1.078-2.131 1.591-1.525-0.607c2.719-1.22 4.619-3.939 4.619-7.096 0-4.293-3.506-7.785-7.816-7.785s-7.816 3.492-7.816 7.785c0 1.556 0.465 3.003 1.258 4.22l-3.103-0.027c-0.002 0-0.004 0-0.005 0-0.010 0-0.017 0.005-0.026 0.005-0.059 0.002-0.117 0.014-0.174 0.035-0.014 0.005-0.029 0.008-0.043 0.015-0.007 0.003-0.014 0.004-0.022 0.007l-3.63 1.792c-0.001 0-0.001 0-0.001 0.001l-2.126 1.022c-0.023 0.010-0.047 0.024-0.071 0.040-0.847 0.564-1.136 1.672-0.672 2.577 0.247 0.481 0.668 0.836 1.186 0.998 0.199 0.062 0.403 0.093 0.605 0.093 0.325 0 0.647-0.080 0.943-0.237l1.558-0.829 2.542-1.313 1.523-0.009-6.11 6.081c-0.001 0.001-0.001 0.001-0.002 0.001l-1.503 1.497c-0.355 0.353-0.55 0.822-0.55 1.322s0.195 0.97 0.55 1.323c0.365 0.363 0.844 0.545 1.324 0.545s0.959-0.182 1.325-0.545l1.476-1.47 1.955-1.459 1.011 1.007-1.978 1.97c-0.001 0.001-0.001 0.001-0.002 0.001l-1.503 1.497c-0.355 0.353-0.55 0.822-0.55 1.322s0.195 0.97 0.55 1.323c0.365 0.363 0.845 0.545 1.325 0.545s0.96-0.182 1.325-0.545l3.909-3.892c0.001-0.001 0.001-0.001 0.001-0.002l1.134-1.123-0.004-0.004c0.007-0.007 0.017-0.010 0.025-0.017l5.8-6.353 3.897 0.555c0.028 0.004 0.056 0.006 0.084 0.006 0.072 0 0.142-0.017 0.21-0.043 0.020-0.007 0.037-0.017 0.056-0.026 0.022-0.011 0.044-0.017 0.065-0.030l3.608-2.395c0.013-0.009 0.020-0.023 0.033-0.033 0.014-0.011 0.032-0.016 0.045-0.029l1.428-1.337c0.743-0.696 0.845-1.836 0.238-2.652zM2.392 17.707c-0.195 0.104-0.416 0.125-0.627 0.058-0.21-0.065-0.38-0.208-0.479-0.402-0.181-0.352-0.076-0.781 0.241-1.013l1.475-0.71 0.504 1.474-1.114 0.592zM6.319 15.655l-1.738 0.898-0.493-1.441 2.276-1.123-0.044 1.666zM23.272 8.221c0 1.031-0.246 2.004-0.672 2.874l-4.695-2.132c-0.049-0.644-0.383-1.207-0.885-1.558l1.644-5.457c2.67 0.849 4.609 3.34 4.609 6.274zM10.036 8.221c0-3.632 2.969-6.587 6.618-6.587 0.284 0 0.562 0.024 0.837 0.059l-1.608 5.338c-0.021-0.001-0.042-0.007-0.064-0.007-1.159 0-2.103 0.94-2.103 2.096s0.943 2.096 2.103 2.096c0.78 0 1.453-0.431 1.817-1.061l4.337 1.97c-1.207 1.624-3.138 2.683-5.318 2.683-3.649 0-6.618-2.955-6.618-6.587zM16.723 9.12c0 0.495-0.406 0.898-0.905 0.898s-0.905-0.403-0.905-0.898c0-0.495 0.406-0.898 0.905-0.898s0.905 0.403 0.905 0.898zM2.768 25.989c-0.265 0.263-0.695 0.262-0.959 0.001-0.128-0.128-0.198-0.296-0.198-0.475s0.070-0.347 0.198-0.473l1.080-1.076 0.956 0.952-1.077 1.072zM6.376 30.181c-0.265 0.263-0.695 0.264-0.96 0.001-0.128-0.128-0.198-0.296-0.198-0.475s0.070-0.347 0.198-0.473l1.081-1.077 0.956 0.952-1.077 1.072zM10.285 26.286c-0.001 0.001-0.001 0.001-0.002 0.001l-1.982 1.976-0.956-0.952 1.98-1.971c0 0 0 0 0-0.001s0.001-0.001 0.002-0.001c0.045-0.045 0.073-0.099 0.101-0.152 0.008-0.016 0.023-0.029 0.029-0.045 0.019-0.046 0.022-0.096 0.029-0.144 0.004-0.028 0.016-0.053 0.016-0.081 0-0.040-0.014-0.079-0.023-0.119-0.007-0.036-0.007-0.073-0.021-0.107-0.023-0.056-0.062-0.106-0.102-0.155-0.011-0.013-0.016-0.030-0.028-0.043 0 0 0 0-0.001 0s-0.001-0.002-0.001-0.002l-1.804-1.796c-0.019-0.019-0.044-0.027-0.065-0.043-0.032-0.025-0.062-0.047-0.098-0.065-0.034-0.017-0.069-0.027-0.105-0.037-0.038-0.011-0.075-0.019-0.116-0.022-0.037-0.002-0.071 0.001-0.107 0.005-0.040 0.005-0.078 0.010-0.117 0.023-0.038 0.012-0.071 0.031-0.106 0.050-0.022 0.013-0.047 0.017-0.068 0.032l-1.991 1.486-1.011-1.007 2.694-2.679 4.896 4.815-1.041 1.032zM17.942 18.407c-0.017-0.002-0.034 0.004-0.051 0.003-0.044-0.002-0.086 0.001-0.129 0.008-0.034 0.006-0.066 0.013-0.099 0.024-0.038 0.013-0.073 0.031-0.108 0.053-0.034 0.020-0.064 0.042-0.093 0.069-0.014 0.013-0.032 0.019-0.045 0.033l-5.275 5.778-4.86-4.779 3.181-3.164c0.234-0.234 0.235-0.613 0.002-0.847-0.118-0.118-0.273-0.176-0.428-0.175v-0.001l-2.491 0.015 0.031-1.805 3.485 0.030c1.42 1.453 3.401 2.359 5.593 2.359 0.491 0 0.97-0.051 1.437-0.138 0.045 0.036 0.089 0.073 0.146 0.095l2.706 1.078 0.171 0.852 0.2 0.994-3.371-0.48zM22.479 18.608l-0.352-1.749 1.624-1.213 1.063 1.411-2.335 1.551zM26.694 15.429l-0.941 0.882-1.046-1.388 0.934-0.716c0.174-0.134 0.394-0.189 0.61-0.161 0.217 0.031 0.408 0.144 0.539 0.319 0.243 0.328 0.202 0.784-0.096 1.064z"></path>
</symbol>
</defs>
</svg>

